<svg id="Layer_1" data-name="Layer 1" xmlns="http://www.w3.org/2000/svg" viewBox="0 0 71 69"><defs><style>.cls-1{fill:#fff;}.cls-2{fill:#0071bc;}</style></defs><title>hiriing logo</title><rect class="cls-1" x="3" y="2" width="64" height="64" rx="4.88" ry="4.88"/><path class="cls-2" d="M32.54,20h6c.8,3,1.61,6,2.4,9,1.62,6.15,3.19,12.3,4.86,18.43a2.57,2.57,0,0,1-.94,3.07c-2.78,2.28-5.5,4.62-8.19,7a1.5,1.5,0,0,1-2.36,0c-2.81-2.48-5.66-4.91-8.53-7.32a2,2,0,0,1-.76-2.29q3.65-13.74,7.28-27.49A3.26,3.26,0,0,1,32.54,20Z"/><path class="cls-2" d="M35.62,9.17c1.43,0,2.87,0,4.3,0,1.06,0,1.53.53,1.2,1.58C40.44,12.85,39.74,14.93,39,17a1.5,1.5,0,0,1-.31.53,3.62,3.62,0,0,1-2.59,1,12.28,12.28,0,0,1-1.47,0,5.43,5.43,0,0,1-1.53-.24,2.71,2.71,0,0,1-1.39-1.88c-.54-1.76-1.19-3.48-1.74-5.23-.48-1.5-.13-1.94,1.48-2C32.86,9.16,34.24,9.17,35.62,9.17Z"/></svg>